<svg xmlns="http://www.w3.org/2000/svg" viewBox="0 0 512 512">
  <!-- Background rounded square — transparent outside, dark inside -->
  <rect width="512" height="512" rx="108" fill="#1a1a2e"/>

  <!-- Terminal window frame -->
  <rect x="56" y="80" width="400" height="352" rx="24" fill="#111111" stroke="#2a6df0" stroke-width="4"/>

  <!-- Title bar -->
  <rect x="56" y="80" width="400" height="44" rx="24" fill="#252525"/>
  <rect x="56" y="100" width="400" height="24" fill="#252525"/>
  <circle cx="88" cy="102" r="8" fill="#ef4444"/>
  <circle cx="112" cy="102" r="8" fill="#f59e0b"/>
  <circle cx="136" cy="102" r="8" fill="#4ade80"/>

  <!-- Robot -->
  <rect x="248" y="148" width="16" height="24" rx="8" fill="#2a6df0"/>
  <circle cx="256" cy="144" r="10" fill="#60a5fa"/>
  <rect x="176" y="172" width="160" height="120" rx="20" fill="#888888"/>
  <rect x="176" y="172" width="160" height="120" rx="20" fill="none" stroke="#aaa" stroke-width="2"/>
  <rect x="204" y="204" width="40" height="36" rx="8" fill="#111"/>
  <rect x="268" y="204" width="40" height="36" rx="8" fill="#111"/>
  <circle cx="224" cy="222" r="12" fill="#2a6df0"/>
  <circle cx="288" cy="222" r="12" fill="#2a6df0"/>
  <circle cx="218" cy="216" r="4" fill="#fff" opacity="0.7"/>
  <circle cx="282" cy="216" r="4" fill="#fff" opacity="0.7"/>
  <rect x="220" y="260" width="72" height="16" rx="8" fill="#555"/>
  <rect x="228" y="260" width="12" height="16" rx="2" fill="#2a6df0" opacity="0.6"/>
  <rect x="248" y="260" width="12" height="16" rx="2" fill="#2a6df0" opacity="0.6"/>
  <rect x="268" y="260" width="12" height="16" rx="2" fill="#2a6df0" opacity="0.6"/>
  <rect x="196" y="300" width="120" height="80" rx="12" fill="#666"/>
  <rect x="196" y="300" width="120" height="80" rx="12" fill="none" stroke="#888" stroke-width="2"/>
  <circle cx="256" cy="336" r="14" fill="#111"/>
  <circle cx="256" cy="336" r="10" fill="#2a6df0" opacity="0.8"/>
  <circle cx="256" cy="336" r="5" fill="#60a5fa"/>
  <rect x="160" y="312" width="32" height="56" rx="12" fill="#777"/>
  <rect x="320" y="312" width="32" height="56" rx="12" fill="#777"/>
  <circle cx="176" cy="372" r="12" fill="#888"/>
  <circle cx="336" cy="372" r="12" fill="#888"/>
  <rect x="216" y="384" width="28" height="36" rx="8" fill="#777"/>
  <rect x="268" y="384" width="28" height="36" rx="8" fill="#777"/>
  <rect x="208" y="412" width="40" height="16" rx="8" fill="#888"/>
  <rect x="264" y="412" width="40" height="16" rx="8" fill="#888"/>
</svg>
